Coordinates
version=1
nRows=9
nColumns=24
inDegrees=yes

Units are S.I. units (second, meters, Newtons, ...)
If the header above contains a line with 'inDegrees', this indicates whether rotational values are in degrees (yes) or radians (no).

endheader
time	pelvis_tilt	pelvis_list	pelvis_rotation	pelvis_tx	pelvis_ty	pelvis_tz	hip_flexion_r	hip_adduction_r	hip_rotation_r	knee_angle_r	ankle_angle_r	subtalar_angle_r	mtp_angle_r	hip_flexion_l	hip_adduction_l	hip_rotation_l	knee_angle_l	ankle_angle_l	subtalar_angle_l	mtp_angle_l	lumbar_extension	lumbar_bending	lumbar_rotation
      1.11000000	     43.60216607	      2.67578945	     -0.44317609	      0.04555237	      0.55320283	     -0.02523820	     47.65511513	     -4.14036626	      4.47255129	   -110.86263317	     20.41247376	      0.00000000	      0.00000000	     47.90252475	     -3.03185763	     -4.42268597	   -111.02342558	     17.42983376	      0.00000000	      0.00000000	    -52.32357116	     -3.39215448	     -3.13651868
      1.12000000	     43.60216607	      2.67578945	     -0.44317609	      0.04555237	      0.55320283	     -0.02523820	     47.65511513	     -4.14036626	      4.47255129	   -110.86263317	     20.41247376	      0.00000000	      0.00000000	     47.90252475	     -3.03185763	     -4.42268597	   -111.02342558	     17.42983376	      0.00000000	      0.00000000	    -52.32357116	     -3.39215448	     -3.13651868
      1.13000000	     43.60200729	      2.67596302	     -0.44298982	      0.04557407	      0.55319268	     -0.02523371	     47.65512530	     -4.14089915	      4.47224346	   -110.86271388	     20.41261637	      0.00000000	      0.00000000	     47.90257702	     -3.03221445	     -4.42280037	   -111.02363811	     17.42997029	      0.00000000	      0.00000000	    -52.32407700	     -3.39241643	     -3.13652459
      1.14000000	     43.59852467	      2.68812587	     -0.41480278	      0.04565117	      0.55308741	     -0.02523769	     47.67493129	     -4.22515505	      4.40843278	   -110.89759180	     20.45013672	      0.00000000	      0.00000000	     47.92637687	     -3.05075494	     -4.45350859	   -111.05777296	     17.45951035	      0.00000000	      0.00000000	    -52.42646495	     -3.44862197	     -3.13985862
      1.15000000	     43.59839754	      2.68844771	     -0.41471001	      0.04566761	      0.55308470	     -0.02523659	     47.67490489	     -4.22515113	      4.40837606	   -110.89751659	     20.45020490	      0.00000000	      0.00000000	     47.92622939	     -3.05065749	     -4.45341674	   -111.05779080	     17.45953445	      0.00000000	      0.00000000	    -52.42666393	     -3.44869468	     -3.13989423
      1.16000000	     43.59796957	      2.68864597	     -0.41462512	      0.04567852	      0.55308192	     -0.02522797	     47.67477700	     -4.22549308	      4.40835699	   -110.89753122	     20.45027333	      0.00000000	      0.00000000	     47.92598104	     -3.05071923	     -4.45331598	   -111.05789818	     17.45956420	      0.00000000	      0.00000000	    -52.42689762	     -3.44878237	     -3.13991117
      1.17000000	     43.59146737	      2.69301373	     -0.41390206	      0.04574608	      0.55311186	     -0.02519678	     47.67299662	     -4.23275491	      4.40732539	   -110.89857496	     20.45118382	      0.00000000	      0.00000000	     47.92283245	     -3.05473611	     -4.45114437	   -111.05985555	     17.46014952	      0.00000000	      0.00000000	    -52.43005163	     -3.45012147	     -3.13987799
      1.18000000	     43.59617688	      2.71942047	     -0.38337404	      0.04574909	      0.55311365	     -0.02523702	     47.67398480	     -4.32611723	      4.36176170	   -110.91054316	     20.47483470	      0.00000000	      0.00000000	     47.92086401	     -3.03883495	     -4.48025167	   -111.05839990	     17.47484374	      0.00000000	      0.00000000	    -52.48470206	     -3.48201888	     -3.13817840
      1.19000000	     43.59615463	      2.71923755	     -0.38341530	      0.04576705	      0.55310188	     -0.02522009	     47.67392087	     -4.32670847	      4.36189656	   -110.91046410	     20.47487529	      0.00000000	      0.00000000	     47.92075383	     -3.03881955	     -4.48019506	   -111.05832376	     17.47484610	      0.00000000	      0.00000000	    -52.48481405	     -3.48206385	     -3.13817516
